<svg height="512pt" viewBox="-48 0 512 512" width="512pt" xmlns="http://www.w3.org/2000/svg"><path d="m23.292969 512h369.472656c12.84375 0 23.292969-10.449219 23.292969-23.292969 0-6.242187 0-451.105469 0-465.414062 0-12.84375-10.449219-23.292969-23.292969-23.292969-4.605469 0-362.433594 0-369.472656 0-12.84375 0-23.292969 10.449219-23.292969 23.292969v465.414062c0 12.84375 10.449219 23.292969 23.292969 23.292969zm377.765625-449.085938v150.492188h-386.058594v-150.492188zm-8.292969 434.085938h-369.472656c-4.570313 0-8.292969-3.722656-8.292969-8.292969v-260.300781h386.058594v260.300781c0 4.570313-3.71875 8.292969-8.292969 8.292969zm8.25-474.550781c.027344.277343.042969.558593.042969.84375v24.621093h-337.753906v-32.914062h329.460937c4.285156 0 7.824219 3.269531 8.25 7.449219zm-386.015625.84375c0-4.570313 3.722656-8.292969 8.292969-8.292969h25.011719v32.914062h-33.304688zm0 0"/><path d="m124.949219 271.96875h-72.222657c-8.707031 0-15.789062 7.085938-15.789062 15.789062v91.023438c0 8.707031 7.082031 15.789062 15.789062 15.789062h72.222657c8.707031 0 15.789062-7.082031 15.789062-15.789062v-91.023438c0-8.703124-7.082031-15.789062-15.789062-15.789062zm.789062 106.8125c0 .4375-.355469.789062-.789062.789062h-72.222657c-.433593 0-.789062-.351562-.789062-.789062v-91.023438c0-.433593.355469-.785156.789062-.785156h72.222657c.433593 0 .789062.351563.789062.785156zm0 0"/><path d="m244.140625 271.96875h-72.222656c-8.707031 0-15.789063 7.085938-15.789063 15.789062v91.023438c0 8.707031 7.082032 15.789062 15.789063 15.789062h72.222656c8.707031 0 15.789063-7.082031 15.789063-15.789062v-91.023438c0-8.703124-7.082032-15.789062-15.789063-15.789062zm.789063 106.8125c0 .4375-.355469.789062-.789063.789062h-72.222656c-.433594 0-.789063-.351562-.789063-.789062v-91.023438c0-.433593.355469-.785156.789063-.785156h72.222656c.433594 0 .789063.351563.789063.785156zm0 0"/><path d="m67.445312 258h42.785157c4.140625 0 7.5-3.355469 7.5-7.5 0-4.140625-3.359375-7.5-7.5-7.5h-42.785157c-4.140624 0-7.5 3.359375-7.5 7.5 0 4.144531 3.359376 7.5 7.5 7.5zm0 0"/><path d="m186.636719 258h42.785156c4.140625 0 7.5-3.355469 7.5-7.5 0-4.140625-3.359375-7.5-7.5-7.5h-42.785156c-4.140625 0-7.5 3.359375-7.5 7.5 0 4.144531 3.359375 7.5 7.5 7.5zm0 0"/><path d="m305.832031 258h42.78125c4.144531 0 7.5-3.355469 7.5-7.5 0-4.140625-3.355469-7.5-7.5-7.5h-42.78125c-4.144531 0-7.503906 3.359375-7.503906 7.5 0 4.144531 3.359375 7.5 7.503906 7.5zm0 0"/><path d="m133.238281 407.273438h-88.800781c-4.140625 0-7.5 3.359374-7.5 7.5 0 4.140624 3.359375 7.5 7.5 7.5h88.800781c4.140625 0 7.5-3.359376 7.5-7.5 0-4.140626-3.359375-7.5-7.5-7.5zm0 0"/><path d="m133.238281 433.066406h-88.800781c-4.140625 0-7.5 3.355469-7.5 7.5 0 4.140625 3.359375 7.5 7.5 7.5h88.800781c4.140625 0 7.5-3.359375 7.5-7.5 0-4.144531-3.359375-7.5-7.5-7.5zm0 0"/><path d="m133.238281 458.859375h-88.800781c-4.140625 0-7.5 3.355469-7.5 7.5 0 4.140625 3.359375 7.5 7.5 7.5h88.800781c4.140625 0 7.5-3.359375 7.5-7.5 0-4.144531-3.359375-7.5-7.5-7.5zm0 0"/><path d="m252.429688 407.273438h-88.796876c-4.144531 0-7.503906 3.359374-7.503906 7.5 0 4.140624 3.359375 7.5 7.503906 7.5h88.796876c4.140624 0 7.5-3.359376 7.5-7.5 0-4.140626-3.359376-7.5-7.5-7.5zm0 0"/><path d="m252.429688 433.066406h-88.796876c-4.144531 0-7.503906 3.355469-7.503906 7.5 0 4.140625 3.359375 7.5 7.503906 7.5h88.796876c4.140624 0 7.5-3.359375 7.5-7.5 0-4.144531-3.359376-7.5-7.5-7.5zm0 0"/><path d="m252.429688 458.859375h-88.796876c-4.144531 0-7.503906 3.355469-7.503906 7.5 0 4.140625 3.359375 7.5 7.503906 7.5h88.796876c4.140624 0 7.5-3.359375 7.5-7.5 0-4.144531-3.359376-7.5-7.5-7.5zm0 0"/><path d="m371.621094 407.273438h-88.796875c-4.144531 0-7.5 3.359374-7.5 7.5 0 4.140624 3.355469 7.5 7.5 7.5h88.796875c4.144531 0 7.5-3.359376 7.5-7.5 0-4.140626-3.355469-7.5-7.5-7.5zm0 0"/><path d="m371.621094 433.066406h-88.796875c-4.144531 0-7.5 3.355469-7.5 7.5 0 4.140625 3.355469 7.5 7.5 7.5h88.796875c4.144531 0 7.5-3.359375 7.5-7.5 0-4.144531-3.355469-7.5-7.5-7.5zm0 0"/><path d="m371.621094 458.859375h-88.796875c-4.144531 0-7.5 3.355469-7.5 7.5 0 4.140625 3.355469 7.5 7.5 7.5h88.796875c4.144531 0 7.5-3.359375 7.5-7.5 0-4.144531-3.355469-7.5-7.5-7.5zm0 0"/><path d="m46.722656 197.535156h322.613282c8.210937 0 14.886718-6.675781 14.886718-14.886718v-87.191407c0-8.207031-6.675781-14.886719-14.886718-14.886719h-143.804688c-4.144531 0-7.5 3.359376-7.5 7.5 0 4.140626 3.355469 7.5 7.5 7.5h143.691406v86.964844h-322.386718v-86.964844h143.691406c4.144531 0 7.5-3.359374 7.5-7.5 0-4.140624-3.355469-7.5-7.5-7.5h-143.804688c-8.207031 0-14.886718 6.679688-14.886718 14.886719v87.191407c0 8.210937 6.679687 14.886718 14.886718 14.886718zm0 0"/><path d="m363.332031 271.96875h-72.21875c-8.707031 0-15.789062 7.085938-15.789062 15.789062v91.023438c0 8.707031 7.082031 15.789062 15.789062 15.789062h72.21875c8.707031 0 15.789063-7.082031 15.789063-15.789062v-28.007812c0-4.144532-3.355469-7.5-7.5-7.5-4.144532 0-7.5 3.355468-7.5 7.5v28.007812c0 .4375-.355469.789062-.789063.789062h-72.21875c-.4375 0-.789062-.351562-.789062-.789062v-91.023438c0-.433593.351562-.785156.789062-.785156h72.21875c.4375 0 .789063.351563.789063.785156v28.011719c0 4.144531 3.355468 7.5 7.5 7.5 4.144531 0 7.5-3.355469 7.5-7.5v-28.011719c0-8.703124-7.082032-15.789062-15.789063-15.789062zm0 0"/></svg>