<svg id="Layer_1_1_" enable-background="new 0 0 96 96" height="512" viewBox="0 0 96 96" width="512" xmlns="http://www.w3.org/2000/svg"><path d="m85 2h-74c-4.962 0-9 4.037-9 9v46c0 1.921.615 3.771 1.725 5.295-1.016.481-1.725 1.508-1.725 2.705v26c0 1.654 1.346 3 3 3h15c1.654 0 3-1.346 3-3v-25h15.484l-5.143 12h-5.341c-.552 0-1 .447-1 1 0 2.757 2.243 5 5 5h15v5c0 2.757 2.243 5 5 5h36c2.757 0 5-2.243 5-5v-24c0-.972-.29-1.873-.773-2.642 1.148-1.543 1.773-3.418 1.773-5.358v-46c0-4.963-4.038-9-9-9zm-64 89c0 .552-.449 1-1 1h-15c-.551 0-1-.448-1-1v-2h17zm0-4h-17v-18h17zm0-20h-17v-2c0-.552.449-1 1-1h15c.551 0 1 .448 1 1zm26 15h-15c-1.304 0-2.416-.836-2.829-2h4.829 13zm6 10h-1c-1.654 0-3-1.346-3-3v-20c0-.553-.448-1-1-1s-1 .447-1 1v9h-11.483l5.143-12h7.34c.552 0 1-.447 1-1 0-1.654 1.346-3 3-3h1zm32 0h-30v-30h30zm6-3c0 1.654-1.346 3-3 3h-1v-30h1c1.654 0 3 1.346 3 3zm1-32c0 1.391-.418 2.733-1.182 3.876-.803-.551-1.773-.876-2.818-.876h-36c-2.414 0-4.434 1.721-4.899 4h-24.285c-.414-1.161-1.514-2-2.816-2h-13.884c-1.344-1.31-2.116-3.109-2.116-5v-1h12c.552 0 1-.447 1-1v-30h62v29h-59c-.552 0-1 .447-1 1s.448 1 1 1h72zm-11-38v-3c0-.553-.448-1-1-1h-59v-3h63v7zm3 2v33h-3v-33zm-5-4v6h-62v-6zm13 37h-6v-43c0-.553-.448-1-1-1h-65c-.552 0-1 .447-1 1v4h-3c-.552 0-1 .447-1 1v38h-11v-43c0-3.859 3.14-7 7-7h74c3.86 0 7 3.141 7 7z"/><circle cx="20" cy="20" r="1"/><circle cx="24" cy="20" r="1"/><circle cx="28" cy="20" r="1"/><path d="m38 21h28c.552 0 1-.447 1-1s-.448-1-1-1h-28c-.552 0-1 .447-1 1s.448 1 1 1z"/><path d="m22 47h20c.552 0 1-.447 1-1v-16c0-.553-.448-1-1-1h-20c-.552 0-1 .447-1 1v16c0 .553.448 1 1 1zm2.851-2 7.149-5.719 7.149 5.719zm16.149-1.081-7.399-5.919 7.399-5.919zm-1.851-12.919-7.149 5.719-7.149-5.719zm-16.149 1.081 7.399 5.919-7.399 5.919z"/><path d="m60 82h20c.552 0 1-.447 1-1v-16c0-.553-.448-1-1-1h-20c-.552 0-1 .447-1 1v16c0 .553.448 1 1 1zm2.851-2 7.149-5.719 7.149 5.719zm16.149-1.081-7.399-5.919 7.399-5.919zm-1.851-12.919-7.149 5.719-7.149-5.719zm-16.149 1.081 7.399 5.919-7.399 5.919z"/><path d="m7 81h11c.552 0 1-.447 1-1v-8c0-.553-.448-1-1-1h-11c-.552 0-1 .447-1 1v8c0 .553.448 1 1 1zm3.075-2 2.425-1.763 2.425 1.763zm6.925-.964-2.8-2.036 2.8-2.036zm-2.075-5.036-2.425 1.763-2.425-1.763zm-6.925.964 2.8 2.036-2.8 2.036z"/><path d="m7 85h11c.552 0 1-.447 1-1s-.448-1-1-1h-11c-.552 0-1 .447-1 1s.448 1 1 1z"/><path d="m60 86h11c.552 0 1-.447 1-1s-.448-1-1-1h-11c-.552 0-1 .447-1 1s.448 1 1 1z"/><path d="m80 84h-5c-.552 0-1 .447-1 1s.448 1 1 1h5c.552 0 1-.447 1-1s-.448-1-1-1z"/><path d="m60 90h4c.552 0 1-.447 1-1s-.448-1-1-1h-4c-.552 0-1 .447-1 1s.448 1 1 1z"/><path d="m73 88h-5c-.552 0-1 .447-1 1s.448 1 1 1h5c.552 0 1-.447 1-1s-.448-1-1-1z"/><path d="m80 88h-3c-.552 0-1 .447-1 1s.448 1 1 1h3c.552 0 1-.447 1-1s-.448-1-1-1z"/><path d="m52 31h11c.552 0 1-.447 1-1s-.448-1-1-1h-11c-.552 0-1 .447-1 1s.448 1 1 1z"/><path d="m67 31h5c.552 0 1-.447 1-1s-.448-1-1-1h-5c-.552 0-1 .447-1 1s.448 1 1 1z"/><path d="m52 35h4c.552 0 1-.447 1-1s-.448-1-1-1h-4c-.552 0-1 .447-1 1s.448 1 1 1z"/><path d="m59 34c0 .553.448 1 1 1h5c.552 0 1-.447 1-1s-.448-1-1-1h-5c-.552 0-1 .447-1 1z"/><path d="m72 33h-3c-.552 0-1 .447-1 1s.448 1 1 1h3c.552 0 1-.447 1-1s-.448-1-1-1z"/><path d="m72 45h-13c-.552 0-1 .447-1 1s.448 1 1 1h13c.552 0 1-.447 1-1s-.448-1-1-1z"/><path d="m52 47h3c.552 0 1-.447 1-1s-.448-1-1-1h-3c-.552 0-1 .447-1 1s.448 1 1 1z"/><path d="m52 39h11c.552 0 1-.447 1-1s-.448-1-1-1h-11c-.552 0-1 .447-1 1s.448 1 1 1z"/><path d="m72 37h-5c-.552 0-1 .447-1 1s.448 1 1 1h5c.552 0 1-.447 1-1s-.448-1-1-1z"/><path d="m52 43h4c.552 0 1-.447 1-1s-.448-1-1-1h-4c-.552 0-1 .447-1 1s.448 1 1 1z"/><path d="m65 43c.552 0 1-.447 1-1s-.448-1-1-1h-5c-.552 0-1 .447-1 1s.448 1 1 1z"/><path d="m72 41h-3c-.552 0-1 .447-1 1s.448 1 1 1h3c.552 0 1-.447 1-1s-.448-1-1-1z"/></svg>