<svg id="Layer_1" enable-background="new 0 0 512 512" height="512" viewBox="0 0 512 512" width="512" xmlns="http://www.w3.org/2000/svg"><g><path d="m185.346 462.545h-67.43c-9.931.344-9.923 14.66 0 15h67.43c9.93-.343 9.923-14.659 0-15z"/><path d="m168.565 115.246-17.935 8.064-17.935-8.064c-3.775-1.699-8.217-.013-9.915 3.765-1.699 3.778-.014 8.217 3.765 9.916l21.01 9.447c2.05.88 4.1.88 6.15 0l21.01-9.447c3.778-1.699 5.464-6.138 3.765-9.916-1.698-3.779-6.14-5.463-9.915-3.765z"/><path d="m178.481 85.905c-1.699-3.778-6.142-5.461-9.916-3.765l-17.935 8.063-17.935-8.063c-3.775-1.699-8.217-.013-9.916 3.765-1.698 3.778-.013 8.217 3.766 9.916l21.01 9.446c2.05.88 4.1.88 6.15 0l21.01-9.446c3.779-1.698 5.465-6.138 3.766-9.916z"/><path d="m75.094 161.568v71.434l-33.207 31.279c-1.502 1.386-2.357 3.423-2.357 5.459v125.031c-.031 4.125 3.336 7.557 7.5 7.557h209.203c4.171 0 7.531-3.433 7.5-7.557v-125.031c0-2.036-.856-4.073-2.357-5.459l-33.207-31.279v-71.434c0-4.142-3.357-7.5-7.5-7.5h-138.075c-4.143 0-7.5 3.358-7.5 7.5zm3.562 135.821c.07.043.14.086.212.126l46.381 27.732-70.719 54.357v-96.641zm-3.562-19.607-15.699-9.387 15.699-14.787zm-6 109.546 76.411-58.732c3.607-2.772 8.645-2.772 12.252 0l76.411 58.732zm179.638-104.365v96.641l-70.719-54.357zm-4.865-14.567-15.699 9.387v-24.174zm-30.699-99.328v117.683l-48.028 28.717c-8.217-5.263-18.804-5.263-27.018 0l-48.028-28.717v-117.683z"/><path d="m120.718 220.409h61.826c9.931-.344 9.923-14.66 0-15h-61.826c-9.931.344-9.924 14.66 0 15z"/><path d="m120.718 261.419h61.826c9.931-.344 9.923-14.66 0-15h-61.826c-9.931.344-9.924 14.66 0 15z"/><path d="m495.193 285.354c3.741 1.772 8.215.182 9.991-3.562 4.522-9.533 6.815-19.733 6.815-30.317-3.05-89.366-129.165-96.209-142.485-8.418h-26.014v-151.867h25.517c-.111 39.283 32.005 71.316 71.491 71.31 94.839-3.908 94.825-138.344-.001-142.244-34.181 0-62.838 23.99-69.85 55.934h-34.657c-4.143 0-7.5 3.358-7.5 7.5v159.367h-25.238v-204.68c0-21.161-17.216-38.377-38.378-38.377h-226.506c-21.162 0-38.378 17.216-38.378 38.377v48.517c.344 9.931 14.66 9.923 15 0v-25.43h273.262v367.859h-273.262v-302.442c-.344-9.931-14.66-9.923-15 0v346.741c0 21.162 17.216 38.378 38.378 38.378h226.506c21.162 0 38.378-17.216 38.378-38.378v-215.565h25.238v159.367c0 4.142 3.357 7.5 7.5 7.5h34.657c7.012 31.944 35.669 55.934 69.85 55.934 94.838-3.908 94.826-138.344-.001-142.244-39.485-.006-71.601 32.028-71.49 71.31h-25.516v-151.867h25.821c4.089 50.18 61.395 80.71 105.748 55.679 3.629-1.997 4.951-6.558 2.954-10.187-1.997-3.628-6.558-4.952-10.187-2.954-36.898 20.745-84.19-6.789-83.819-49.121 0-30.945 25.341-56.121 56.491-56.121 40.744-.478 68.964 43.484 51.124 80.009-1.776 3.743-.181 8.216 3.561 9.992zm-54.685-250.098c31.149 0 56.492 25.176 56.492 56.122-3.099 74.451-109.897 74.43-112.983 0 0-30.945 25.341-56.122 56.491-56.122zm-425.508 11.208v-8.086c0-12.891 10.487-23.378 23.378-23.378h226.506c12.891 0 23.378 10.487 23.378 23.377v8.086h-273.262zm249.884 450.536h-226.506c-12.891 0-23.378-10.487-23.378-23.378v-29.299h273.262v29.299c0 12.891-10.488 23.378-23.378 23.378zm175.624-143.387c31.149 0 56.492 25.176 56.492 56.122-3.099 74.451-109.897 74.43-112.983 0 0-30.945 25.341-56.122 56.491-56.122z"/><path d="m447.469 224.839c-2.515.644-4.87 1.721-6.96 3.15-18.095-12.371-37.113 6.228-32.563 25.022 3.185 13.161 13.651 24.353 29.471 31.514 2.062.89 4.124.89 6.187 0 15.819-7.163 26.285-18.354 29.469-31.514 3.755-15.517-8.413-32.573-25.604-28.172zm11.023 24.645c-2.401 9.925-11.294 16.336-17.983 19.864-6.689-3.527-15.582-9.938-17.984-19.864-1.666-6.878 6.652-15.631 11.433-7.053 2.674 5.078 10.43 5.076 13.104 0 5.608-7.759 13.21-.298 11.43 7.053z"/><path d="m406.163 90.263 11.718 11.356-2.764 16.024c-1.038 6.011 5.461 10.744 10.865 7.922l14.525-7.593 14.526 7.593c5.378 2.809 11.903-1.91 10.865-7.922l-2.765-16.023 11.719-11.356c4.391-4.255 1.905-11.935-4.147-12.809l-16.23-2.345-7.25-14.605c-2.706-5.452-10.729-5.452-13.436 0l-7.25 14.605-16.229 2.345c-6.052.873-8.538 8.552-4.147 12.808zm26.417-.87c3.712-.536 6.8-5.291 7.928-8.686 2.107 5.604 6.925 9.248 12.941 9.41-4.692 3.646-6.59 9.432-4.911 15.127-4.969-3.364-11.112-3.39-16.061 0 1.647-5.708-.201-11.509-4.911-15.127z"/><path d="m418.692 439.051c1.919 0 3.839-.732 5.304-2.197l43.632-43.632c2.929-2.929 2.929-7.678 0-10.606-2.93-2.929-7.678-2.929-10.607 0l-43.632 43.632c-4.453 4.452-.993 12.803 5.303 12.803z"/><path d="m421.985 398.382c9.652 0 9.668-15 0-15-9.652 0-9.668 15 0 15z"/><path d="m459.031 421.088c-9.652 0-9.668 15 0 15 9.652 0 9.668-15 0-15z"/></g></svg>